<?xml version="1.0" encoding="UTF-8"?>
<!DOCTYPE svg PUBLIC "-//W3C//DTD SVG 1.1//EN" "http://www.w3.org/Graphics/SVG/1.1/DTD/svg11.dtd">
<!-- Creator: CorelDRAW X7 -->
<svg xmlns="http://www.w3.org/2000/svg" xml:space="preserve" width="213.519mm" height="237.501mm" version="1.1" style="shape-rendering:geometricPrecision; text-rendering:geometricPrecision; image-rendering:optimizeQuality; fill-rule:evenodd; clip-rule:evenodd"
viewBox="0 0 21656 24089"
 xmlns:xlink="http://www.w3.org/1999/xlink">
 <defs>
  <style type="text/css">
   <![CDATA[
    .fil0 {fill:none}
    .fil9 {fill:#474443}
    .fil11 {fill:#645C5A}
    .fil10 {fill:#8B8684}
    .fil6 {fill:#C4D4E6}
    .fil15 {fill:#CD9234}
    .fil14 {fill:#DED978}
    .fil13 {fill:#E8E37F}
    .fil2 {fill:#FAD19B}
    .fil12 {fill:#FCF0A3}
    .fil1 {fill:#474443;fill-opacity:0.368627}
    .fil4 {fill:url(#id0)}
    .fil8 {fill:url(#id1)}
    .fil5 {fill:url(#id2)}
    .fil7 {fill:url(#id3)}
    .fil3 {fill:url(#id4)}
   ]]>
  </style>
  <linearGradient id="id0" gradientUnits="userSpaceOnUse" x1="9006.06" y1="15840.2" x2="5748.24" y2="12736">
   <stop offset="0" style="stop-opacity:1; stop-color:#FFD9A8"/>
   <stop offset="1" style="stop-opacity:1; stop-color:#FFE5C4"/>
  </linearGradient>
  <linearGradient id="id1" gradientUnits="userSpaceOnUse" x1="11712" y1="3506.6" x2="11667.2" y2="5875.88">
   <stop offset="0" style="stop-opacity:1; stop-color:#CD8234"/>
   <stop offset="1" style="stop-opacity:1; stop-color:#EBA861"/>
  </linearGradient>
  <linearGradient id="id2" gradientUnits="userSpaceOnUse" x1="11412.8" y1="18905.1" x2="12264.8" y2="10433.3">
   <stop offset="0" style="stop-opacity:1; stop-color:#44AEE2"/>
   <stop offset="0.560784" style="stop-opacity:1; stop-color:#52B9EC"/>
   <stop offset="1" style="stop-opacity:1; stop-color:#60C5F7"/>
  </linearGradient>
  <linearGradient id="id3" gradientUnits="userSpaceOnUse" x1="13794.8" y1="12666.2" x2="9582.38" y2="2549.04">
   <stop offset="0" style="stop-opacity:1; stop-color:#FED298"/>
   <stop offset="1" style="stop-opacity:1; stop-color:#FCE4C5"/>
  </linearGradient>
  <linearGradient id="id4" gradientUnits="userSpaceOnUse" x1="14596.2" y1="15840.2" x2="17854" y2="12735.9">
   <stop offset="0" style="stop-opacity:1; stop-color:#FFD9A8"/>
   <stop offset="0.529412" style="stop-opacity:1; stop-color:#FFDFB6"/>
   <stop offset="1" style="stop-opacity:1; stop-color:#FFE5C4"/>
  </linearGradient>
 </defs>
 <g id="Layer_x0020_1">
  <metadata id="CorelCorpID_0Corel-Layer"/>
  <polygon class="fil0" points="0,24089 21656,24089 21656,0 0,0 "/>
  <path class="fil0" d="M10789 2119c3688,156 5689,3531 5532,8356 -196,4826 -2550,8396 -5532,8396 -2942,0 -4786,-4669 -5336,-8396 -549,-3688 1687,-8553 5336,-8356z"/>
  <path class="fil0" d="M7376 7101c0,0 235,1530 941,2197 707,628 157,353 1295,1138 1138,745 1962,1491 2197,2393 235,902 589,1687 -196,3453 -824,1726 -824,1765 -824,1765 0,0 1530,-1098 1883,-3452 314,-2354 -628,-3649 -863,-4120 -196,-471 2040,118 2472,-3099 431,-3178 -3649,-942 -3649,-942l-3256 667 0 0z"/>
  <path class="fil0" d="M10946 3060c2629,79 3492,2590 3413,3806 -78,1216 -1059,2589 -3570,2471 -1216,-78 -2197,-353 -2746,-823 -628,-550 -746,-1374 -706,-2041 0,-1294 980,-3491 3609,-3413l0 0z"/>
  <path class="fil0" d="M8474 6552c550,-79 1138,-79 1727,0 745,-510 -2708,-510 -1727,0z"/>
  <circle class="fil0" cx="9494" cy="5885" r="392"/>
  <circle class="fil0" cx="9534" cy="5806" r="392"/>
  <path class="fil0" d="M9024 4473c313,-354 627,-236 863,-40 -275,0 -589,0 -863,40z"/>
  <path class="fil0" d="M13221 6513c-549,-40 -1137,-40 -1726,0 -745,-471 2668,-471 1726,0z"/>
  <circle class="fil0" cx="12201" cy="5885" r="392"/>
  <circle class="fil0" cx="12162" cy="5806" r="392"/>
  <path class="fil0" d="M12672 4473c-314,-354 -628,-236 -863,-40 275,0 549,0 863,40z"/>
  <path class="fil0" d="M11181 2825c707,78 1020,274 1020,510 -39,274 -588,274 -1373,274 -745,0 -1334,-78 -1334,-274 0,-157 275,-432 903,-510l0 0c-118,-393 -40,-628 235,-785 -78,392 39,667 549,785l0 0 0 0z"/>
  <path class="fil0" d="M10711 8553c117,0 353,-275 353,-589 0,-274 -157,-549 -353,-549 -197,0 -354,275 -354,549 0,314 236,589 354,589z"/>
  <path class="fil0" d="M10711 7140c117,0 392,275 392,550 0,313 -157,588 -392,588 -236,0 -393,-275 -393,-588 0,-275 275,-550 393,-550z"/>
  <circle class="fil0" cx="10711" cy="7690" r="471"/>
  <circle class="fil0" cx="10711" cy="7690" r="275"/>
  <path class="fil0" d="M10750 7886l314 471c0,0 78,156 235,39 118,-79 196,-118 196,-118 0,0 79,-118 -157,-275 -196,-156 -549,-353 -549,-353 0,0 -78,0 -78,40 0,78 39,196 39,196l0 0 0 0z"/>
  <ellipse class="fil0" transform="matrix(0.274331 -0.133824 0.119707 0.313916 7953.69 14367.2)" rx="2119" ry="10593"/>
  <circle class="fil0" cx="6787" cy="9808" r="471"/>
  <circle class="fil0" cx="6670" cy="8278" r="275"/>
  <g id="_323361403856">
   <g>
   </g>
  </g>
  <polygon class="fil0" points="6591,21343 16007,21343 16007,20793 6591,20793 "/>
  <path class="fil1" d="M11801 20917c2643,0 4786,112 4786,251 0,138 -2143,250 -4786,250 -2643,0 -4786,-112 -4786,-250 0,-139 2143,-251 4786,-251z"/>
  <g id="_323361405104">
   <circle class="fil2" cx="6462" cy="9208" r="1227"/>
   <circle class="fil2" cx="16942" cy="9144" r="1227"/>
   <path class="fil3" d="M17499 13247c967,1185 1183,2613 479,3187 -704,574 -2059,79 -3028,-1106 -967,-1183 -1181,-2611 -479,-3186 705,-574 2059,-81 3028,1105l0 0z"/>
   <path class="fil4" d="M6104 13247c-970,1185 -1183,2613 -479,3187 704,574 2059,79 3026,-1106 969,-1183 1182,-2611 478,-3186 -702,-574 -2059,-81 -3025,1105l0 0z"/>
   <path class="fil5" d="M11814 10582c2248,-79 5688,2903 5609,5192 -81,2290 -3361,2925 -5609,2982 -2246,58 -5671,-852 -5558,-3254 110,-2400 3312,-4839 5558,-4920l0 0z"/>
   <ellipse class="fil6" cx="11691" cy="13389" rx="2991" ry="2837"/>
   <ellipse class="fil7" cx="11689" cy="7608" rx="5833" ry="5381"/>
   <path class="fil8" d="M11664 3522c1826,0 2172,366 2140,866 -32,498 -1919,1465 -2125,1472 -204,8 -2106,-910 -2106,-1489 0,-579 263,-849 2091,-849l0 0z"/>
   <circle class="fil9" cx="8715" cy="8008" r="672"/>
   <circle class="fil10" cx="8572" cy="7750" r="290"/>
   <circle class="fil11" cx="8980" cy="8282" r="189"/>
   <circle class="fil9" cx="14776" cy="8013" r="672"/>
   <circle class="fil10" cx="14918" cy="7755" r="290"/>
   <circle class="fil11" cx="14511" cy="8287" r="189"/>
   <circle class="fil12" cx="11689" cy="10773" r="1389"/>
   <ellipse class="fil13" cx="11689" cy="10758" rx="955" ry="758"/>
   <ellipse class="fil14" cx="11689" cy="10758" rx="874" ry="694"/>
   <ellipse class="fil15" cx="11689" cy="10758" rx="734" ry="567"/>
  </g>
 </g>
</svg>
