<?xml version="1.0" encoding="UTF-8"?>
<!DOCTYPE svg PUBLIC "-//W3C//DTD SVG 1.1//EN" "http://www.w3.org/Graphics/SVG/1.1/DTD/svg11.dtd">
<!-- Creator: CorelDRAW X7 -->
<svg xmlns="http://www.w3.org/2000/svg" xml:space="preserve" width="213.519mm" height="237.501mm" version="1.1" style="shape-rendering:geometricPrecision; text-rendering:geometricPrecision; image-rendering:optimizeQuality; fill-rule:evenodd; clip-rule:evenodd"
viewBox="0 0 21656 24089"
 xmlns:xlink="http://www.w3.org/1999/xlink">
 <defs>
  <style type="text/css">
   <![CDATA[
    .str3 {stroke:#FF7069;stroke-width:202.833}
    .str2 {stroke:#FF7069;stroke-width:152.13}
    .str0 {stroke:#7789A4;stroke-width:20.2853}
    .str1 {stroke:#D7D6EB;stroke-width:20.2853}
    .fil0 {fill:none}
    .fil7 {fill:#009B4C}
    .fil4 {fill:#7789A4}
    .fil5 {fill:#D7D6EB}
    .fil2 {fill:#DBDEE3}
    .fil3 {fill:#EBECF6}
    .fil6 {fill:#FF7069}
    .fil8 {fill:#FFE356}
    .fil1 {fill:#474443;fill-opacity:0.368627}
   ]]>
  </style>
 </defs>
 <g id="Layer_x0020_1">
  <metadata id="CorelCorpID_0Corel-Layer"/>
  <polygon class="fil0" points="0,24089 21656,24089 21656,0 0,0 "/>
  <path class="fil0" d="M10789 2119c3688,156 5689,3531 5532,8356 -196,4826 -2550,8396 -5532,8396 -2942,0 -4786,-4669 -5336,-8396 -549,-3688 1687,-8553 5336,-8356z"/>
  <path class="fil0" d="M7376 7101c0,0 235,1530 941,2197 707,628 157,353 1295,1138 1138,745 1962,1491 2197,2393 235,902 589,1687 -196,3453 -824,1726 -824,1765 -824,1765 0,0 1530,-1098 1883,-3452 314,-2354 -628,-3649 -863,-4120 -196,-471 2040,118 2472,-3099 431,-3178 -3649,-942 -3649,-942l-3256 667 0 0z"/>
  <path class="fil0" d="M10946 3060c2629,79 3492,2590 3413,3806 -78,1216 -1059,2589 -3570,2471 -1216,-78 -2197,-353 -2746,-823 -628,-550 -746,-1374 -706,-2041 0,-1294 980,-3491 3609,-3413l0 0z"/>
  <path class="fil0" d="M8474 6552c550,-79 1138,-79 1727,0 745,-510 -2708,-510 -1727,0z"/>
  <circle class="fil0" cx="9494" cy="5885" r="392"/>
  <circle class="fil0" cx="9534" cy="5806" r="392"/>
  <path class="fil0" d="M9024 4473c313,-354 627,-236 863,-40 -275,0 -589,0 -863,40z"/>
  <path class="fil0" d="M13221 6513c-549,-40 -1137,-40 -1726,0 -745,-471 2668,-471 1726,0z"/>
  <circle class="fil0" cx="12201" cy="5885" r="392"/>
  <circle class="fil0" cx="12162" cy="5806" r="392"/>
  <path class="fil0" d="M12672 4473c-314,-354 -628,-236 -863,-40 275,0 549,0 863,40z"/>
  <path class="fil0" d="M11181 2825c707,78 1020,274 1020,510 -39,274 -588,274 -1373,274 -745,0 -1334,-78 -1334,-274 0,-157 275,-432 903,-510l0 0c-118,-393 -40,-628 235,-785 -78,392 39,667 549,785l0 0 0 0z"/>
  <path class="fil0" d="M10711 8553c117,0 353,-275 353,-589 0,-274 -157,-549 -353,-549 -197,0 -354,275 -354,549 0,314 236,589 354,589z"/>
  <path class="fil0" d="M10711 7140c117,0 392,275 392,550 0,313 -157,588 -392,588 -236,0 -393,-275 -393,-588 0,-275 275,-550 393,-550z"/>
  <circle class="fil0" cx="10711" cy="7690" r="471"/>
  <circle class="fil0" cx="10711" cy="7690" r="275"/>
  <path class="fil0" d="M10750 7886l314 471c0,0 78,156 235,39 118,-79 196,-118 196,-118 0,0 79,-118 -157,-275 -196,-156 -549,-353 -549,-353 0,0 -78,0 -78,40 0,78 39,196 39,196l0 0 0 0z"/>
  <ellipse class="fil0" transform="matrix(0.274331 -0.133824 0.119707 0.313916 7953.69 14367.2)" rx="2119" ry="10593"/>
  <circle class="fil0" cx="6787" cy="9808" r="471"/>
  <circle class="fil0" cx="6670" cy="8278" r="275"/>
  <g id="_323362906256">
   <g>
   </g>
  </g>
  <polygon class="fil0" points="6591,21343 16007,21343 16007,20793 6591,20793 "/>
  <path class="fil1" d="M11801 20917c2643,0 4786,112 4786,251 0,138 -2143,250 -4786,250 -2643,0 -4786,-112 -4786,-250 0,-139 2143,-251 4786,-251z"/>
  <g id="_323477252864">
   <g>
   </g>
  </g>
  <g id="_323362907696">
   <path class="fil2" d="M16660 10113l-5613 -5357c-3687,-907 -4272,-323 -4549,2320 -383,2898 1922,3733 1557,5490l-55 5175c32,1473 487,1602 1215,0l1943 -4019c630,-1046 1096,-1007 1594,-84l1354 2766 893 1777c425,955 702,936 839,0l-44 -6180c21,-988 577,-1258 866,-1888l0 0 0 0z"/>
   <path class="fil3" d="M12287 8886l3173 466c-257,615 -362,1298 -276,2062l446 5144c111,1261 -74,1441 -699,0l-1953 -4163c-609,-874 -1239,-943 -1897,0l-1373 3086c-1224,3474 -1544,3354 -1049,0 351,-2287 127,-4315 0,-5877 398,-3168 2345,-330 3628,-718l0 0 0 0z"/>
   <polygon class="fil4 str0" points="17093,9606 16604,9938 17212,11072 17755,10785 "/>
   <polygon class="fil5 str1" points="16820,11089 16945,10961 17783,10514 17964,10505 18690,11762 17528,12433 "/>
   <polygon class="fil4 str0" points="17134,11624 17258,11494 18097,11049 18276,11039 20920,15833 19757,16504 "/>
   <path class="fil6" d="M10247 9180c-707,23 -987,406 -736,1240 392,1927 -448,3377 -591,5120 -169,1256 2,1152 434,0 848,-2915 1398,-4418 2652,-4403 1737,24 1670,1357 2837,4403 402,1222 534,1223 395,0 -437,-2800 -981,-3048 -560,-5623l-1733 -616c-753,529 -2446,-179 -2698,-121l0 0z"/>
   <circle class="fil4" cx="14929" cy="6383" r="4070"/>
   <circle class="fil7" cx="14929" cy="6383" r="3620"/>
   <path class="fil8" d="M16500 9674c-3247,1460 -6182,-2062 -4880,-4605 4289,-1398 5497,-465 5937,1040 291,994 230,2224 -1057,3565z"/>
   <path class="fil0 str2" d="M12973 6002c0,0 -276,-45 -396,56 -119,101 -423,369 -672,258"/>
   <path class="fil0 str3" d="M14207 5450c0,0 -313,147 -276,258 37,110 267,266 276,405 10,138 18,286 18,286"/>
   <path class="fil0 str3" d="M15460 5201c0,0 -332,193 -304,406 27,211 10,128 10,128"/>
   <path class="fil0 str3" d="M14870 6434c0,0 195,121 175,222 -18,102 -82,193 -230,267 -148,74 -304,102 -313,276 -8,176 -28,241 -28,241"/>
   <path class="fil0 str3" d="M13673 7310c0,0 -83,203 -239,212 -157,9 -166,-92 -305,9 -138,102 -451,359 -451,359"/>
   <path class="fil0 str3" d="M14226 9053c0,0 37,157 213,128 174,-27 303,-267 506,-211 203,55 470,304 497,424"/>
   <path class="fil0 str3" d="M15774 7623c0,0 -47,-239 109,-267 157,-27 479,84 489,-64 10,-149 -138,-479 -138,-479"/>
  </g>
 </g>
</svg>
