<?xml version="1.0" encoding="UTF-8"?>
<!DOCTYPE svg PUBLIC "-//W3C//DTD SVG 1.1//EN" "http://www.w3.org/Graphics/SVG/1.1/DTD/svg11.dtd">
<!-- Creator: CorelDRAW X8 -->
<svg xmlns="http://www.w3.org/2000/svg" xml:space="preserve" width="18.0035cm" height="13.3098cm" version="1.1" style="shape-rendering:geometricPrecision; text-rendering:geometricPrecision; image-rendering:optimizeQuality; fill-rule:evenodd; clip-rule:evenodd"
viewBox="0 0 23076 17060"
 xmlns:xlink="http://www.w3.org/1999/xlink">
 <defs>
  <style type="text/css">
   <![CDATA[
    .str1 {stroke:#A1A1A1;stroke-width:25.6349}
    .str5 {stroke:#DCDDDD;stroke-width:25.6349}
    .str0 {stroke:#F0BA7D;stroke-width:25.6349}
    .str2 {stroke:#FED298;stroke-width:25.6349}
    .str4 {stroke:#566892;stroke-width:9.76691}
    .str3 {stroke:#FED298;stroke-width:9.76691}
    .fil8 {fill:#35404A}
    .fil4 {fill:#3A4651}
    .fil5 {fill:#535E69}
    .fil6 {fill:#566892}
    .fil7 {fill:#667BAE}
    .fil1 {fill:#A1A1A1}
    .fil9 {fill:#DCDDDD}
    .fil0 {fill:#F0BA7D}
    .fil2 {fill:#FED298}
    .fil3 {fill:#FFDBAD}
   ]]>
  </style>
 </defs>
 <g id="Layer_x0020_1">
  <metadata id="CorelCorpID_0Corel-Layer"/>
  <rect class="fil0 str0" x="15734" y="7208" width="3595" height="2344"/>
  <rect class="fil0 str0" x="4324" y="5910" width="2765" height="2344"/>
  <path class="fil1 str1" d="M4115 10743c-174,-1197 -348,-2394 -524,-3590 805,-200 3765,-229 4112,-56l-1123 3985 -2465 -339z"/>
  <polygon class="fil2 str2" points="8903,8448 12186,8471 12397,8685 12531,9212 12397,9601 12024,9754 11802,10159 8853,9709 8485,9567 8412,9104 8502,8623 "/>
  <ellipse class="fil2 str2" cx="10398" cy="9414" rx="1515" ry="1983"/>
  <path class="fil3 str2" d="M10410 7431c831,8 1503,893 1503,1983 0,1090 -672,1975 -1503,1983l0 -3966 0 0z"/>
  <ellipse class="fil2 str2" cx="5654" cy="3916" rx="2271" ry="2629"/>
  <path class="fil4" d="M15204 14832l937 -15 159 32c1791,2 3583,23 5375,15 1316,-6 1469,149 1381,-1265 -54,-855 -194,-1598 -293,-2411 -178,-839 -200,-2049 -829,-2490 -396,-277 -1091,-405 -1538,-539 -123,-37 -196,-60 -322,-89 -907,-219 -530,-281 -962,313 -578,794 -1878,988 -2697,364 -481,-366 -429,-502 -647,-831 -423,-37 -2205,464 -2695,788 -23,690 111,941 -352,1337 -285,244 -245,90 -319,544 -37,235 -91,488 -122,722 725,386 1239,841 1697,1458 346,466 952,1392 1106,2061l121 6 0 0z"/>
  <path class="fil4" d="M5037 9862l-72 570c-145,-136 -279,-640 -346,-833l-759 -2497c-309,30 -1169,314 -1530,417 -1402,397 -1665,328 -1823,2071 -102,1121 -307,2279 -419,3459 -197,2097 -438,1751 3817,1788l1836 26c5,-542 932,-1912 1193,-2244 347,-443 873,-930 1379,-1199l579 -293c-82,-153 -174,-264 -264,-427 -69,-124 -155,-368 -216,-462 -150,-228 -501,-166 -556,-793 -36,-417 -29,-889 192,-1138 200,-226 128,-168 205,-473 54,-214 136,-336 190,-526l-925 -262c-111,553 -852,3103 -1085,3406l-226 -1676c-24,-340 -93,-382 43,-686 274,-612 119,-694 -445,-698 -264,-2 -1060,-114 -732,575 110,231 173,268 136,577 -54,433 -131,882 -172,1318l0 0z"/>
  <g id="_629465336">
   <ellipse class="fil2 str2" cx="17575" cy="6023" rx="2271" ry="2629"/>
   <path class="fil4" d="M14145 7622c95,67 1741,316 2021,373 -165,-358 -363,-466 -586,-1148 -147,-454 -202,-1039 -33,-1509 1469,-82 1910,-970 2443,-1853l428 659c489,505 482,469 1038,725 11,5 22,11 32,16 9,4 21,11 30,16 60,35 49,27 87,63 386,1046 -240,2444 -670,3101 765,-279 1766,-248 2044,-458 0,-334 -547,-624 -634,-1537 -68,-714 45,-1431 -168,-2103 -321,-1018 -1276,-1909 -2618,-1876 -1320,32 -2257,885 -2531,1958 -272,1059 159,2222 -641,3248 -116,150 -187,182 -242,325l0 0z"/>
  </g>
  <path class="fil4" d="M6544 1914c199,177 326,353 541,526 181,145 391,376 549,541 264,278 120,1186 -199,1977l321 0c112,-28 423,-41 583,-681 41,-164 66,-373 37,-555 -45,-274 -154,-213 -337,-332 69,-1328 263,-2051 -738,-2656 -377,-226 -864,-369 -1392,-396 -572,-30 -982,-305 -1437,-338 43,182 146,305 101,467l-954 -209c57,162 276,434 261,502 -62,97 -576,51 -837,86 132,138 268,131 428,283 -498,849 -310,1088 -246,2261 -164,114 -270,50 -328,285 -79,319 42,748 210,1028 151,252 132,188 427,255l302 0c-237,-569 -402,-1217 -327,-1656 75,-427 1002,-608 1452,-769l1583 -619 0 0z"/>
  <path class="fil2" d="M7768 3393c25,412 -111,1016 -333,1565l321 0c112,-28 423,-41 583,-681 41,-164 66,-373 37,-555 -45,-272 -153,-214 -332,-329l-276 0 0 0zm-4547 0c-162,110 -267,48 -324,282 -79,319 42,748 210,1028 151,252 132,188 427,255l302 0c-222,-531 -379,-1129 -338,-1565l-277 0 0 0z"/>
  <path class="fil5" d="M11684 8415c59,78 55,167 64,276 42,537 290,431 415,72l62 -138c325,134 247,838 73,947l-282 85c-4,-7 -9,-4 -17,5l441 0c89,-75 150,-244 144,-708 -10,-623 -254,-164 -341,-733 -16,-100 -19,-154 -57,-237 -223,-1174 -1677,-1515 -2628,-1061 -541,256 -857,761 -903,1556 -524,168 -274,1051 -269,1061 28,59 57,93 95,122l441 0c-3,-9 -5,-18 -7,-26 -447,-49 -442,-133 -416,-683 11,-232 33,-294 245,-318 48,137 19,315 123,388 122,86 248,16 289,-114 112,-362 -73,-287 202,-723 419,-53 482,176 742,317 22,38 9,29 73,67 24,14 128,53 165,60 113,22 230,34 304,-28 306,-95 273,-176 493,-328 276,-190 441,-156 549,141l0 0z"/>
  <path class="fil2 str3" d="M11889 9058c90,35 203,-88 274,-295l62 -138c326,134 247,838 73,947l-282 85c-4,-7 -9,-4 -17,5l441 0c89,-75 150,-244 144,-708 -9,-493 -163,-307 -269,-493l-426 597zm-3226 -676c-3,33 -5,65 -8,97 -524,168 -274,1051 -269,1061 10,23 22,43 35,60l60 62 441 0c-3,-9 -5,-18 -6,-26 -448,-49 -443,-133 -417,-683 12,-228 32,-292 236,-317l-72 -254zm110 389c14,102 22,202 94,252 43,31 88,43 131,36l-225 -288 0 0z"/>
  <path class="fil6 str4" d="M9221 11598c-922,-38 -3061,2456 -2991,3357l8337 -5c137,-970 -1836,-3000 -2977,-3371 -169,520 -829,1345 -1238,1633 -311,-256 -806,-898 -1131,-1614z"/>
  <path class="fil7 str4" d="M10410 14953l4157 -3c137,-970 -1836,-3000 -2977,-3371 -161,496 -769,1269 -1180,1589l0 1785 0 0z"/>
  <polygon class="fil8" points="5045,7391 4852,7016 5083,7005 6587,6976 5884,7667 "/>
  <polygon class="fil5" points="6587,6976 5685,7544 6303,8111 7093,6995 "/>
  <polygon class="fil2 str2" points="3458,4831 3427,3393 7768,3393 7925,3916 7415,5295 4091,5272 "/>
  <ellipse class="fil9 str5" cx="10410" cy="13654" rx="282" ry="158"/>
  <ellipse class="fil9 str5" cx="10410" cy="14513" rx="282" ry="158"/>
  <ellipse class="fil1 str1" cx="10166" cy="16685" rx="4667" ry="361"/>
  <polygon class="fil5" points="4843,7010 5685,7544 5080,8162 4337,7029 "/>
 </g>
</svg>
