<?xml version="1.0" encoding="UTF-8"?>
<!DOCTYPE svg PUBLIC "-//W3C//DTD SVG 1.1//EN" "http://www.w3.org/Graphics/SVG/1.1/DTD/svg11.dtd">
<!-- Creator: CorelDRAW X7 -->
<svg xmlns="http://www.w3.org/2000/svg" xml:space="preserve" width="213.519mm" height="237.501mm" version="1.1" style="shape-rendering:geometricPrecision; text-rendering:geometricPrecision; image-rendering:optimizeQuality; fill-rule:evenodd; clip-rule:evenodd"
viewBox="0 0 21656 24089"
 xmlns:xlink="http://www.w3.org/1999/xlink">
 <defs>
  <style type="text/css">
   <![CDATA[
    .str0 {stroke:black;stroke-width:20.2853}
    .fil0 {fill:none}
    .fil8 {fill:#474443}
    .fil7 {fill:#6983BA}
    .fil6 {fill:#758FC8}
    .fil12 {fill:#8B8B8C}
    .fil10 {fill:#93AAD7}
    .fil11 {fill:#F4B3B3}
    .fil4 {fill:whitesmoke}
    .fil3 {fill:#FCCF9D}
    .fil5 {fill:#FCF7FF}
    .fil1 {fill:#474443;fill-opacity:0.368627}
    .fil2 {fill:#D9B285;fill-opacity:0.450980}
    .fil9 {fill:#FEFEFE;fill-opacity:0.831373}
   ]]>
  </style>
 </defs>
 <g id="Layer_x0020_1">
  <metadata id="CorelCorpID_0Corel-Layer"/>
  <polygon class="fil0" points="0,24089 21656,24089 21656,0 0,0 "/>
  <path class="fil0" d="M10789 2119c3688,156 5689,3531 5532,8356 -196,4826 -2550,8396 -5532,8396 -2942,0 -4786,-4669 -5336,-8396 -549,-3688 1687,-8553 5336,-8356z"/>
  <path class="fil0" d="M7376 7101c0,0 235,1530 941,2197 707,628 157,353 1295,1138 1138,745 1962,1491 2197,2393 235,902 589,1687 -196,3453 -824,1726 -824,1765 -824,1765 0,0 1530,-1098 1883,-3452 314,-2354 -628,-3649 -863,-4120 -196,-471 2040,118 2472,-3099 431,-3178 -3649,-942 -3649,-942l-3256 667 0 0z"/>
  <path class="fil0" d="M10946 3060c2629,79 3492,2590 3413,3806 -78,1216 -1059,2589 -3570,2471 -1216,-78 -2197,-353 -2746,-823 -628,-550 -746,-1374 -706,-2041 0,-1294 980,-3491 3609,-3413l0 0z"/>
  <path class="fil0" d="M8474 6552c550,-79 1138,-79 1727,0 745,-510 -2708,-510 -1727,0z"/>
  <circle class="fil0" cx="9494" cy="5885" r="392"/>
  <circle class="fil0" cx="9534" cy="5806" r="392"/>
  <path class="fil0" d="M9024 4473c313,-354 627,-236 863,-40 -275,0 -589,0 -863,40z"/>
  <path class="fil0" d="M13221 6513c-549,-40 -1137,-40 -1726,0 -745,-471 2668,-471 1726,0z"/>
  <circle class="fil0" cx="12201" cy="5885" r="392"/>
  <circle class="fil0" cx="12162" cy="5806" r="392"/>
  <path class="fil0" d="M12672 4473c-314,-354 -628,-236 -863,-40 275,0 549,0 863,40z"/>
  <path class="fil0" d="M11181 2825c707,78 1020,274 1020,510 -39,274 -588,274 -1373,274 -745,0 -1334,-78 -1334,-274 0,-157 275,-432 903,-510l0 0c-118,-393 -40,-628 235,-785 -78,392 39,667 549,785l0 0 0 0z"/>
  <path class="fil0" d="M10711 8553c117,0 353,-275 353,-589 0,-274 -157,-549 -353,-549 -197,0 -354,275 -354,549 0,314 236,589 354,589z"/>
  <path class="fil0" d="M10711 7140c117,0 392,275 392,550 0,313 -157,588 -392,588 -236,0 -393,-275 -393,-588 0,-275 275,-550 393,-550z"/>
  <circle class="fil0" cx="10711" cy="7690" r="471"/>
  <circle class="fil0" cx="10711" cy="7690" r="275"/>
  <path class="fil0" d="M10750 7886l314 471c0,0 78,156 235,39 118,-79 196,-118 196,-118 0,0 79,-118 -157,-275 -196,-156 -549,-353 -549,-353 0,0 -78,0 -78,40 0,78 39,196 39,196l0 0 0 0z"/>
  <ellipse class="fil0" transform="matrix(0.274331 -0.133824 0.119707 0.313916 7953.69 14367.2)" rx="2119" ry="10593"/>
  <circle class="fil0" cx="6787" cy="9808" r="471"/>
  <circle class="fil0" cx="6670" cy="8278" r="275"/>
  <g id="_323362918576">
   <g>
   </g>
  </g>
  <polygon class="fil0" points="6591,21343 16007,21343 16007,20793 6591,20793 "/>
  <path class="fil1" d="M11801 20917c2643,0 4786,112 4786,251 0,138 -2143,250 -4786,250 -2643,0 -4786,-112 -4786,-250 0,-139 2143,-251 4786,-251z"/>
  <g id="_323362918160">
   <g>
    <path class="fil2" d="M10748 18756c2451,0 4610,-804 6381,-2058 1727,-1222 3098,-2892 3098,-2954 0,-127 -3846,-4995 -9271,-4995 -5426,0 -8508,4683 -8259,5239 250,555 3213,4768 8051,4768l0 0z"/>
    <path class="fil3" d="M10696 18438c2451,0 4610,-804 6381,-2058 1727,-1222 3097,-2891 3097,-2955 0,-127 -3846,-4994 -9271,-4994 -5425,0 -8508,4683 -8258,5239 249,555 3213,4768 8051,4768z"/>
    <path class="fil4" d="M10620 17838c2280,0 4289,-706 5937,-1806 1605,-1073 2881,-2539 2881,-2594 0,-112 -3579,-4386 -8626,-4386 -5047,0 -7915,4112 -7683,4600 232,488 2989,4186 7491,4186l0 0z"/>
    <path class="fil5" d="M10805 17610c2280,0 4288,-672 5937,-1719 1605,-1018 2881,-2413 2881,-2466 0,-106 -3579,-4169 -8626,-4169 -5048,0 -7915,3909 -7683,4373 232,464 2989,3981 7491,3981l0 0z"/>
    <path class="fil6" d="M13917 9571c1171,854 1932,2236 1932,3795 0,1723 -928,3228 -2311,4044 -1422,398 -2801,492 -4142,308 -1719,-697 -2932,-2382 -2932,-4352 0,-1766 975,-3304 2416,-4105 1734,-391 3411,-263 5037,310l0 0z"/>
    <path class="fil7" d="M13917 9571c106,77 208,157 306,242 -1941,-619 -3912,-771 -5933,-163 187,-144 384,-274 590,-389 1734,-391 3411,-263 5037,310z"/>
    <circle class="fil8" cx="11199" cy="13478" r="1734"/>
    <path class="fil9" d="M10337 11709c371,0 673,301 673,673 0,372 -302,674 -673,674 -372,0 -674,-302 -674,-674 0,-372 302,-673 674,-673z"/>
    <path class="fil10" d="M8042 10735c313,-460 865,-192 578,275 -600,579 -979,1310 -992,2296 38,570 -659,514 -579,0 47,-1006 417,-1842 993,-2571z"/>
    <ellipse class="fil10" cx="9118" cy="10291" rx="310" ry="293"/>
    <line class="fil0 str0" x1="20834" y1="19461" x2="20972" y2= "19253" />
    <path class="fil11" d="M3818 12337c-523,638 -763,1160 -689,1315 58,121 274,445 636,860 359,-71 636,-534 636,-1094 0,-533 -250,-977 -583,-1081z"/>
   </g>
   <polygon class="fil12" points="10387,2009 12306,2009 12306,2359 10735,2359 10735,2730 12306,2730 12306,3075 10735,3075 10735,3446 12306,3446 12306,3816 10387,3816 "/>
   <polygon class="fil12" points="9793,4645 9793,5835 10025,5835 10025,4861 10271,4861 10271,5835 10498,5835 10498,4861 10745,4861 10745,5835 10990,5835 10990,4645 "/>
   <polygon class="fil12" points="11695,4656 12876,4656 12876,4885 11909,4885 11909,5128 12876,5128 12876,5353 11909,5353 11909,5596 12876,5596 12876,5839 11695,5839 "/>
   <polygon class="fil12" points="10148,6922 9558,6922 9558,7037 10041,7037 10041,7158 9558,7158 9558,7271 10041,7271 10041,7393 9558,7393 9558,7513 10148,7513 "/>
   <polygon class="fil12" points="11584,7515 11586,6919 11470,6918 11469,7407 11346,7407 11347,6918 11233,6918 11232,7407 11109,7406 11111,6917 10987,6917 10986,7514 "/>
   <polygon class="fil12" points="13023,6925 13024,7522 12908,7522 12907,7033 12784,7034 12785,7522 12671,7523 12670,7034 12547,7034 12548,7523 12426,7523 12425,6926 "/>
  </g>
 </g>
</svg>
