<?xml version="1.0" encoding="UTF-8"?>
<!DOCTYPE svg PUBLIC "-//W3C//DTD SVG 1.1//EN" "http://www.w3.org/Graphics/SVG/1.1/DTD/svg11.dtd">
<!-- Creator: CorelDRAW X7 -->
<svg xmlns="http://www.w3.org/2000/svg" xml:space="preserve" width="213.519mm" height="237.501mm" version="1.1" style="shape-rendering:geometricPrecision; text-rendering:geometricPrecision; image-rendering:optimizeQuality; fill-rule:evenodd; clip-rule:evenodd"
viewBox="0 0 21656 24089"
 xmlns:xlink="http://www.w3.org/1999/xlink">
 <defs>
  <style type="text/css">
   <![CDATA[
    .str4 {stroke:#7789A4;stroke-width:101.406}
    .str1 {stroke:#566892;stroke-width:76.0597}
    .str5 {stroke:#566892;stroke-width:152.109}
    .str3 {stroke:#7789A4;stroke-width:253.516}
    .str0 {stroke:#332C2B;stroke-width:20.2853}
    .str6 {stroke:#566892;stroke-width:20.2853}
    .str2 {stroke:#FEFEFE;stroke-width:20.2853}
    .fil0 {fill:none}
    .fil6 {fill:#00A2E9}
    .fil4 {fill:#2D80B9}
    .fil9 {fill:#566892}
    .fil5 {fill:#5F5D5D}
    .fil12 {fill:#7789A4}
    .fil10 {fill:#E6E6E6}
    .fil7 {fill:#EEEEEF}
    .fil3 {fill:#F0BA7D}
    .fil11 {fill:whitesmoke}
    .fil2 {fill:#FED298}
    .fil8 {fill:#FEFEFE}
    .fil1 {fill:#474443;fill-opacity:0.368627}
   ]]>
  </style>
 </defs>
 <g id="Layer_x0020_1">
  <metadata id="CorelCorpID_0Corel-Layer"/>
  <polygon class="fil0" points="0,24089 21656,24089 21656,0 0,0 "/>
  <path class="fil0" d="M10789 2119c3688,156 5689,3531 5532,8356 -196,4826 -2550,8396 -5532,8396 -2942,0 -4786,-4669 -5336,-8396 -549,-3688 1687,-8553 5336,-8356z"/>
  <path class="fil0" d="M7376 7101c0,0 235,1530 941,2197 707,628 157,353 1295,1138 1138,745 1962,1491 2197,2393 235,902 589,1687 -196,3453 -824,1726 -824,1765 -824,1765 0,0 1530,-1098 1883,-3452 314,-2354 -628,-3649 -863,-4120 -196,-471 2040,118 2472,-3099 431,-3178 -3649,-942 -3649,-942l-3256 667 0 0z"/>
  <path class="fil0" d="M10946 3060c2629,79 3492,2590 3413,3806 -78,1216 -1059,2589 -3570,2471 -1216,-78 -2197,-353 -2746,-823 -628,-550 -746,-1374 -706,-2041 0,-1294 980,-3491 3609,-3413l0 0z"/>
  <path class="fil0" d="M8474 6552c550,-79 1138,-79 1727,0 745,-510 -2708,-510 -1727,0z"/>
  <circle class="fil0" cx="9494" cy="5885" r="392"/>
  <circle class="fil0" cx="9534" cy="5806" r="392"/>
  <path class="fil0" d="M9024 4473c313,-354 627,-236 863,-40 -275,0 -589,0 -863,40z"/>
  <path class="fil0" d="M13221 6513c-549,-40 -1137,-40 -1726,0 -745,-471 2668,-471 1726,0z"/>
  <circle class="fil0" cx="12201" cy="5885" r="392"/>
  <circle class="fil0" cx="12162" cy="5806" r="392"/>
  <path class="fil0" d="M12672 4473c-314,-354 -628,-236 -863,-40 275,0 549,0 863,40z"/>
  <path class="fil0" d="M11181 2825c707,78 1020,274 1020,510 -39,274 -588,274 -1373,274 -745,0 -1334,-78 -1334,-274 0,-157 275,-432 903,-510l0 0c-118,-393 -40,-628 235,-785 -78,392 39,667 549,785l0 0 0 0z"/>
  <path class="fil0" d="M10711 8553c117,0 353,-275 353,-589 0,-274 -157,-549 -353,-549 -197,0 -354,275 -354,549 0,314 236,589 354,589z"/>
  <path class="fil0" d="M10711 7140c117,0 392,275 392,550 0,313 -157,588 -392,588 -236,0 -393,-275 -393,-588 0,-275 275,-550 393,-550z"/>
  <circle class="fil0" cx="10711" cy="7690" r="471"/>
  <circle class="fil0" cx="10711" cy="7690" r="275"/>
  <path class="fil0" d="M10750 7886l314 471c0,0 78,156 235,39 118,-79 196,-118 196,-118 0,0 79,-118 -157,-275 -196,-156 -549,-353 -549,-353 0,0 -78,0 -78,40 0,78 39,196 39,196l0 0 0 0z"/>
  <ellipse class="fil0" transform="matrix(0.274331 -0.133824 0.119707 0.313916 7953.69 14367.2)" rx="2119" ry="10593"/>
  <circle class="fil0" cx="6787" cy="9808" r="471"/>
  <circle class="fil0" cx="6670" cy="8278" r="275"/>
  <g id="_288839879232">
   <g>
   </g>
  </g>
  <polygon class="fil0" points="6591,21343 16007,21343 16007,20793 6591,20793 "/>
  <path class="fil1" d="M11801 20917c2643,0 4786,112 4786,251 0,138 -2143,250 -4786,250 -2643,0 -4786,-112 -4786,-250 0,-139 2143,-251 4786,-251z"/>
  <g id="_288839880480">
   <path class="fil2 str0" d="M13671 3523c-146,117 263,545 -540,477 -121,-10 -481,-214 -486,-360 -10,-389 -5,-190 219,-443 10,-14 5,-19 10,-38 282,-64 617,136 797,364z"/>
   <rect class="fil3" x="10529" y="7862" width="2602" height="2505"/>
   <polygon class="fil4" points="13618,9647 9985,9647 11556,16850 12056,16850 "/>
   <polygon class="fil5" points="11439,10634 11648,10420 11949,10420 12217,10620 11959,10707 12309,15668 11804,17935 11264,15595 11643,10707 "/>
   <polygon class="fil6" points="13112,9039 11949,10420 12956,11524 13618,9647 "/>
   <polygon class="fil6" points="10486,9039 11648,10420 10641,11524 9985,9647 "/>
   <path class="fil7" d="M15349 17862c-1089,442 -2266,671 -3531,681l0 -603 812 -3896 1007 -4509 3001 1012c418,73 662,345 681,856l919 4620c-710,618 -1478,1099 -2271,1523l-496 -1635 -122 1951 0 0z"/>
   <path class="fil7" d="M8248 17862c1094,442 2272,671 3536,681l0 -603 -817 -3896 -1007 -4509 -2996 1012c-423,73 -661,345 -686,856l-914 4620c710,618 1474,1099 2271,1523l492 -1635 121 1951 0 0z"/>
   <path class="fil0 str1" d="M15354 13027c282,-2476 -345,-3653 -1673,-3833 -185,-29 -370,-53 -550,-77m-2602 -107c-1503,126 -2281,705 -2145,1843"/>
   <circle class="fil8" cx="15218" cy="13786" r="730"/>
   <path class="fil9" d="M15208 13178c10,0 20,0 29,0l-34 224c-209,4 -374,175 -374,379 0,209 170,379 379,379 209,0 380,-170 380,-379 0,-146 -83,-268 -200,-331l34 -238c239,87 409,316 409,584 0,340 -277,622 -623,622 -340,0 -617,-282 -617,-622 0,-341 277,-618 617,-618z"/>
   <polygon class="fil8 str2" points="15174,13061 15267,13017 15461,13042 15500,13110 "/>
   <path class="fil2" d="M11808 2633c1100,0 2014,1206 2184,2782l0 0c278,-364 676,-253 375,983 -102,301 -234,462 -414,350l0 0c-243,1440 -1109,2500 -2145,2500 -1036,0 -1906,-1065 -2144,-2500 -166,83 -292,-83 -390,-370 -296,-1206 78,-1337 355,-1006 180,-1552 1090,-2739 2179,-2739l0 0z"/>
   <path class="fil5" d="M9907 4691l53 19c725,-87 1712,209 2763,-895 608,-584 836,-350 763,540l0 404 258 549 -19 341 185 -10 262 -452c170,-1474 -48,-2306 -763,-2306 -521,-1435 -3201,-885 -4013,599 -195,646 -15,1157 -19,1736 111,63 199,204 243,452l141 -14c117,-380 151,-686 146,-963l0 0z"/>
   <polygon class="fil10" points="11531,17429 9887,9705 8647,11495 9960,11495 9167,12015 "/>
   <polygon class="fil11" points="11590,17341 9946,9618 8705,11407 10023,11407 9231,11928 "/>
   <polygon class="fil10" points="12013,17405 13657,9681 14897,11471 13584,11471 14377,11991 "/>
   <polygon class="fil11" points="11949,17312 13593,9588 14834,11383 13520,11383 14313,11904 "/>
   <path class="fil0 str1" d="M7207 13081c-632,-2014 2919,-2724 3147,-628"/>
   <line class="fil0 str3" x1="8384" y1="10853" x2="8414" y2= "11140" />
   <path class="fil0 str4" d="M7207 13081c219,1483 350,1848 798,1746"/>
   <path class="fil0 str4" d="M10354 12453c166,1343 560,1858 -219,1985"/>
   <line class="fil0 str5" x1="10150" y1="14438" x2="9853" y2= "14442" />
   <circle class="fil9 str6" cx="9839" cy="14477" r="180"/>
   <circle class="fil12 str6" cx="9751" cy="14408" r="39"/>
   <line class="fil0 str5" x1="7976" y1="14822" x2="8190" y2= "14778" />
   <circle class="fil9 str6" transform="matrix(-0.861566 0.288588 0.288588 0.861566 8280.99 14757)" r="198"/>
   <circle class="fil12 str6" transform="matrix(-1.37705 0.461252 0.461252 1.37705 8363.32 14672.4)" r="33"/>
  </g>
 </g>
</svg>
